<?xml version="1.0" encoding="UTF-8" standalone="no"?>
<!-- Created with Inkscape (http://www.inkscape.org/) -->

<svg
   xmlns:dc="http://purl.org/dc/elements/1.1/"
   xmlns:cc="http://creativecommons.org/ns#"
   xmlns:rdf="http://www.w3.org/1999/02/22-rdf-syntax-ns#"
   xmlns:svg="http://www.w3.org/2000/svg"
   xmlns="http://www.w3.org/2000/svg"
   xmlns:sodipodi="http://sodipodi.sourceforge.net/DTD/sodipodi-0.dtd"
   xmlns:inkscape="http://www.inkscape.org/namespaces/inkscape"
   width="744.09448819"
   height="1052.3622047"
   id="svg2"
   version="1.1"
   inkscape:version="0.48.2 r9819"
   sodipodi:docname="New document 1">
  <defs
     id="defs4">
    <marker
       inkscape:stockid="DotM"
       orient="auto"
       refY="0.0"
       refX="0.0"
       id="DotM"
       style="overflow:visible">
      <path
         id="path3863"
         d="M -2.5,-1.0 C -2.5,1.7600000 -4.7400000,4.0 -7.5,4.0 C -10.260000,4.0 -12.5,1.7600000 -12.5,-1.0 C -12.5,-3.7600000 -10.260000,-6.0 -7.5,-6.0 C -4.7400000,-6.0 -2.5,-3.7600000 -2.5,-1.0 z "
         style="fill-rule:evenodd;stroke:#000000;stroke-width:1.0pt;marker-start:none;marker-end:none"
         transform="scale(0.4) translate(7.4, 1)" />
    </marker>
    <marker
       inkscape:stockid="Arrow1Lend"
       orient="auto"
       refY="0.0"
       refX="0.0"
       id="Arrow1Lend"
       style="overflow:visible;">
      <path
         id="path3801"
         d="M 0.0,0.0 L 5.0,-5.0 L -12.5,0.0 L 5.0,5.0 L 0.0,0.0 z "
         style="fill-rule:evenodd;stroke:#000000;stroke-width:1.0pt;marker-start:none;"
         transform="scale(0.8) rotate(180) translate(12.5,0)" />
    </marker>
    <marker
       inkscape:stockid="Arrow1Lstart"
       orient="auto"
       refY="0.0"
       refX="0.0"
       id="Arrow1Lstart"
       style="overflow:visible">
      <path
         id="path3798"
         d="M 0.0,0.0 L 5.0,-5.0 L -12.5,0.0 L 5.0,5.0 L 0.0,0.0 z "
         style="fill-rule:evenodd;stroke:#000000;stroke-width:1.0pt;marker-start:none"
         transform="scale(0.8) translate(12.5,0)" />
    </marker>
  </defs>
  <sodipodi:namedview
     id="base"
     pagecolor="#ffffff"
     bordercolor="#666666"
     borderopacity="1.0"
     inkscape:pageopacity="0.0"
     inkscape:pageshadow="2"
     inkscape:zoom="2.8"
     inkscape:cx="426.55228"
     inkscape:cy="731.85034"
     inkscape:document-units="px"
     inkscape:current-layer="layer1"
     showgrid="true"
     inkscape:window-width="2560"
     inkscape:window-height="1321"
     inkscape:window-x="0"
     inkscape:window-y="22"
     inkscape:window-maximized="1">
    <inkscape:grid
       type="xygrid"
       id="grid2985" />
  </sodipodi:namedview>
  <metadata
     id="metadata7">
    <rdf:RDF>
      <cc:Work
         rdf:about="">
        <dc:format>image/svg+xml</dc:format>
        <dc:type
           rdf:resource="http://purl.org/dc/dcmitype/StillImage" />
        <dc:title></dc:title>
      </cc:Work>
    </rdf:RDF>
  </metadata>
  <g
     inkscape:label="Layer 1"
     inkscape:groupmode="layer"
     id="layer1">
    <rect
       style="fill:#78c896;stroke:none;fill-opacity:0.58823532"
       id="rect5181"
       width="140"
       height="140"
       x="425"
       y="167.36218" />
    <rect
       style="fill:#78c896;fill-opacity:0.58823532;stroke:none"
       id="rect5179"
       width="70"
       height="70"
       x="495"
       y="307.36218" />
    <rect
       style="fill:#ff8c8c;stroke:none;stroke-width:0.80000000999999998;stroke-linejoin:miter;stroke-miterlimit:4;stroke-opacity:1;stroke-dasharray:none;stroke-dashoffset:0;fill-opacity:0.58823532"
       id="rect5177"
       width="70"
       height="70"
       x="425"
       y="377.36218" />
    <rect
       style="fill:#ff8c8c;stroke:none;stroke-width:0.80000000999999998;stroke-linejoin:miter;stroke-miterlimit:4;stroke-opacity:1;stroke-dasharray:none;stroke-dashoffset:0;fill-opacity:0.58823532"
       id="rect5165"
       width="140"
       height="140"
       x="285"
       y="307.36218" />
    <rect
       style="fill:none;stroke:#0000ff;stroke-width:0.80000001;stroke-miterlimit:4;stroke-opacity:1;stroke-dasharray:none;stroke-dashoffset:0"
       id="rect3765"
       width="280"
       height="280"
       x="285"
       y="167.36218" />
    <rect
       style="fill:#78c896;stroke:#0000ff;stroke-width:0.80000000000000004;stroke-miterlimit:4;stroke-opacity:1;stroke-dasharray:none;stroke-dashoffset:0;fill-opacity:0.58823532"
       id="rect3777"
       width="140"
       height="140"
       x="285"
       y="167.36218" />
    <rect
       style="fill:none;stroke:#0000ff;stroke-width:0.80000000000000004;stroke-miterlimit:4;stroke-opacity:1;stroke-dasharray:none;stroke-dashoffset:0;fill-opacity:1"
       id="rect3779"
       width="140"
       height="140"
       x="425"
       y="307.36218" />
    <rect
       style="fill:none;stroke:#0000ff;stroke-width:0.80000000999999998;stroke-miterlimit:4;stroke-opacity:1;stroke-dasharray:none;stroke-dashoffset:0;stroke-linejoin:miter;fill-opacity:1"
       id="rect3781"
       width="70"
       height="70"
       x="285"
       y="307.36218" />
    <rect
       style="fill:none;stroke:#0000ff;stroke-width:0.80000000999999998;stroke-miterlimit:4;stroke-opacity:1;stroke-dasharray:none;stroke-dashoffset:0;fill-opacity:1"
       id="rect3783"
       width="70"
       height="70"
       x="355"
       y="377.36218" />
    <rect
       style="fill:none;stroke:#0000ff;stroke-width:0.80000000999999998;stroke-miterlimit:4;stroke-opacity:1;stroke-dasharray:none;stroke-dashoffset:0;fill-opacity:1"
       id="rect3785"
       width="35"
       height="35"
       x="355"
       y="307.36218" />
    <rect
       style="fill:none;stroke:#0000ff;stroke-width:0.80000000999999998;stroke-miterlimit:4;stroke-opacity:1;stroke-dasharray:none;stroke-dashoffset:0;fill-opacity:1"
       id="rect3787"
       width="35"
       height="35"
       x="390"
       y="342.36218" />
    <rect
       style="fill:none;stroke:#0000ff;stroke-width:0.80000000999999998;stroke-miterlimit:4;stroke-opacity:1;stroke-dasharray:none;stroke-dashoffset:0;fill-opacity:1"
       id="rect3791"
       width="70"
       height="70"
       x="425"
       y="167.36218" />
    <rect
       style="fill:none;stroke:#0000ff;stroke-width:0.80000001;stroke-miterlimit:4;stroke-opacity:1;stroke-dasharray:none;stroke-dashoffset:0"
       id="rect3793"
       width="70"
       height="70"
       x="495"
       y="237.36218" />
    <rect
       style="fill:#78c896;stroke:#0000ff;stroke-opacity:1;stroke-width:0.80000000000000004;stroke-miterlimit:4;stroke-dasharray:none;fill-opacity:0.58823532"
       id="rect5169"
       width="70"
       height="70"
       x="425"
       y="307.36218" />
    <rect
       style="fill:#78c896;stroke:#0000ff;stroke-width:0.80000000999999998;stroke-linejoin:miter;stroke-miterlimit:4;stroke-opacity:1;stroke-dasharray:none;stroke-dashoffset:0;fill-opacity:0.58823532"
       id="rect5171"
       width="70"
       height="70"
       x="495"
       y="377.36218" />
    <path
       sodipodi:type="arc"
       style="fill:#32a028;fill-opacity:1;stroke:none"
       id="path5183"
       sodipodi:cx="285"
       sodipodi:cy="167.36218"
       sodipodi:rx="5"
       sodipodi:ry="5"
       d="m 290,167.36218 a 5,5 0 1 1 -10,0 5,5 0 1 1 10,0 z" />
    <path
       sodipodi:type="arc"
       style="fill:#32a028;fill-opacity:1;stroke:none"
       id="path5185"
       sodipodi:cx="425"
       sodipodi:cy="167.36218"
       sodipodi:rx="5"
       sodipodi:ry="5"
       d="m 430,167.36218 a 5,5 0 1 1 -10,0 5,5 0 1 1 10,0 z" />
    <path
       sodipodi:type="arc"
       style="fill:#32a028;fill-opacity:1;stroke:none"
       id="path5187"
       sodipodi:cx="425"
       sodipodi:cy="237.36218"
       sodipodi:rx="5"
       sodipodi:ry="5"
       d="m 430,237.36218 a 5,5 0 1 1 -10,0 5,5 0 1 1 10,0 z" />
    <path
       sodipodi:type="arc"
       style="fill:#32a028;fill-opacity:1;stroke:none"
       id="path5189"
       sodipodi:cx="495"
       sodipodi:cy="237.36218"
       sodipodi:rx="5"
       sodipodi:ry="5"
       d="m 500,237.36218 a 5,5 0 1 1 -10,0 5,5 0 1 1 10,0 z" />
    <path
       sodipodi:type="arc"
       style="fill:#32a028;fill-opacity:1;stroke:none"
       id="path5191"
       sodipodi:cx="495"
       sodipodi:cy="307.36218"
       sodipodi:rx="5"
       sodipodi:ry="5"
       d="m 500,307.36218 a 5,5 0 1 1 -10,0 5,5 0 1 1 10,0 z" />
    <path
       sodipodi:type="arc"
       style="fill:#32a028;fill-opacity:1;stroke:none"
       id="path5193"
       sodipodi:cx="425"
       sodipodi:cy="307.36218"
       sodipodi:rx="5"
       sodipodi:ry="5"
       d="m 430,307.36218 a 5,5 0 1 1 -10,0 5,5 0 1 1 10,0 z" />
    <path
       sodipodi:type="arc"
       style="fill:#32a028;fill-opacity:1;stroke:none"
       id="path5195"
       sodipodi:cx="495"
       sodipodi:cy="377.36218"
       sodipodi:rx="5"
       sodipodi:ry="5"
       d="m 500,377.36218 a 5,5 0 1 1 -10,0 5,5 0 1 1 10,0 z" />
    <path
       sodipodi:type="arc"
       style="fill:#32a028;fill-opacity:1;stroke:none"
       id="path5197"
       sodipodi:cx="565"
       sodipodi:cy="307.36218"
       sodipodi:rx="5"
       sodipodi:ry="5"
       d="m 570,307.36218 a 5,5 0 1 1 -10,0 5,5 0 1 1 10,0 z" />
    <path
       sodipodi:type="arc"
       style="fill:#32a028;fill-opacity:1;stroke:none"
       id="path5199"
       sodipodi:cx="565"
       sodipodi:cy="377.36218"
       sodipodi:rx="5"
       sodipodi:ry="5"
       d="m 570,377.36218 a 5,5 0 1 1 -10,0 5,5 0 1 1 10,0 z" />
    <path
       sodipodi:type="arc"
       style="fill:#32a028;fill-opacity:1;stroke:none"
       id="path5201"
       sodipodi:cx="565"
       sodipodi:cy="447.36218"
       sodipodi:rx="5"
       sodipodi:ry="5"
       d="m 570,447.36218 a 5,5 0 1 1 -10,0 5,5 0 1 1 10,0 z" />
    <path
       sodipodi:type="arc"
       style="fill:#32a028;fill-opacity:1;stroke:none"
       id="path5203"
       sodipodi:cx="355"
       sodipodi:cy="307.36218"
       sodipodi:rx="5"
       sodipodi:ry="5"
       d="m 360,307.36218 a 5,5 0 1 1 -10,0 5,5 0 1 1 10,0 z"
       transform="translate(140,140)" />
    <path
       sodipodi:type="arc"
       style="fill:#000000;fill-opacity:1;stroke:none"
       id="path5205"
       sodipodi:cx="495"
       sodipodi:cy="167.36218"
       sodipodi:rx="5"
       sodipodi:ry="5"
       d="m 500,167.36218 a 5,5 0 1 1 -10,0 5,5 0 1 1 10,0 z" />
    <path
       sodipodi:type="arc"
       style="fill:#000000;fill-opacity:1;stroke:none"
       id="path5207"
       sodipodi:cx="565"
       sodipodi:cy="167.36218"
       sodipodi:rx="5"
       sodipodi:ry="5"
       d="m 570,167.36218 a 5,5 0 1 1 -10,0 5,5 0 1 1 10,0 z" />
    <path
       sodipodi:type="arc"
       style="fill:#000000;fill-opacity:1;stroke:none"
       id="path5209"
       sodipodi:cx="565"
       sodipodi:cy="237.36218"
       sodipodi:rx="5"
       sodipodi:ry="5"
       d="m 570,237.36218 a 5,5 0 1 1 -10,0 5,5 0 1 1 10,0 z" />
    <path
       sodipodi:type="arc"
       style="fill:#f05a00;fill-opacity:1;stroke:none"
       id="path5211"
       sodipodi:cx="285"
       sodipodi:cy="377.36218"
       sodipodi:rx="5"
       sodipodi:ry="5"
       d="m 290,377.36218 a 5,5 0 1 1 -10,0 5,5 0 1 1 10,0 z" />
    <path
       sodipodi:type="arc"
       style="fill:#f05a00;fill-opacity:1;stroke:none"
       id="path5213"
       sodipodi:cx="285"
       sodipodi:cy="447.36218"
       sodipodi:rx="5"
       sodipodi:ry="5"
       d="m 290,447.36218 a 5,5 0 1 1 -10,0 5,5 0 1 1 10,0 z" />
    <path
       sodipodi:type="arc"
       style="fill:#f05a00;fill-opacity:1;stroke:none"
       id="path5215"
       sodipodi:cx="355"
       sodipodi:cy="447.36218"
       sodipodi:rx="5"
       sodipodi:ry="5"
       d="m 360,447.36218 a 5,5 0 1 1 -10,0 5,5 0 1 1 10,0 z" />
    <path
       sodipodi:type="arc"
       style="fill:#f05a00;fill-opacity:1;stroke:none"
       id="path5217"
       sodipodi:cx="425"
       sodipodi:cy="447.36218"
       sodipodi:rx="5"
       sodipodi:ry="5"
       d="m 430,447.36218 a 5,5 0 1 1 -10,0 5,5 0 1 1 10,0 z" />
    <path
       sodipodi:type="arc"
       style="fill:#f05a00;fill-opacity:1;stroke:none"
       id="path5219"
       sodipodi:cx="355"
       sodipodi:cy="377.36218"
       sodipodi:rx="5"
       sodipodi:ry="5"
       d="m 360,377.36218 a 5,5 0 1 1 -10,0 5,5 0 1 1 10,0 z" />
    <path
       sodipodi:type="arc"
       style="fill:#f05a00;fill-opacity:1;stroke:none"
       id="path5221"
       sodipodi:cx="355"
       sodipodi:cy="342.36218"
       sodipodi:rx="5"
       sodipodi:ry="5"
       d="m 360,342.36218 a 5,5 0 1 1 -10,0 5,5 0 1 1 10,0 z" />
    <path
       sodipodi:type="arc"
       style="fill:#f05a00;fill-opacity:1;stroke:none"
       id="path5223"
       sodipodi:cx="390"
       sodipodi:cy="342.36218"
       sodipodi:rx="5"
       sodipodi:ry="5"
       d="m 395,342.36218 a 5,5 0 1 1 -10,0 5,5 0 1 1 10,0 z" />
    <path
       sodipodi:type="arc"
       style="fill:#f05a00;fill-opacity:1;stroke:none"
       id="path5225"
       sodipodi:cx="390"
       sodipodi:cy="377.36218"
       sodipodi:rx="5"
       sodipodi:ry="5"
       d="m 395,377.36218 a 5,5 0 1 1 -10,0 5,5 0 1 1 10,0 z" />
    <path
       sodipodi:type="arc"
       style="fill:#f05a00;fill-opacity:1;stroke:none"
       id="path5227"
       sodipodi:cx="285"
       sodipodi:cy="307.36218"
       sodipodi:rx="5"
       sodipodi:ry="5"
       d="m 290,307.36218 a 5,5 0 1 1 -10,0 5,5 0 1 1 10,0 z" />
    <path
       sodipodi:type="arc"
       style="fill:#f05a00;fill-opacity:1;stroke:none"
       id="path5229"
       sodipodi:cx="355"
       sodipodi:cy="307.36218"
       sodipodi:rx="5"
       sodipodi:ry="5"
       d="m 360,307.36218 a 5,5 0 1 1 -10,0 5,5 0 1 1 10,0 z" />
    <path
       sodipodi:type="arc"
       style="fill:#f05a00;fill-opacity:1;stroke:none"
       id="path5231"
       sodipodi:cx="390"
       sodipodi:cy="307.36218"
       sodipodi:rx="5"
       sodipodi:ry="5"
       d="m 395,307.36218 a 5,5 0 1 1 -10,0 5,5 0 1 1 10,0 z" />
    <path
       sodipodi:type="arc"
       style="fill:#f05a00;fill-opacity:1;stroke:none"
       id="path5233"
       sodipodi:cx="425"
       sodipodi:cy="342.36218"
       sodipodi:rx="5"
       sodipodi:ry="5"
       d="m 430,342.36218 a 5,5 0 1 1 -10,0 5,5 0 1 1 10,0 z" />
    <path
       sodipodi:type="arc"
       style="fill:#f05a00;fill-opacity:1;stroke:none"
       id="path5235"
       sodipodi:cx="425"
       sodipodi:cy="377.36218"
       sodipodi:rx="5"
       sodipodi:ry="5"
       d="m 430,377.36218 a 5,5 0 1 1 -10,0 5,5 0 1 1 10,0 z" />
  </g>
</svg>
